<?xml version="1.0" standalone="no"?>
<!DOCTYPE svg PUBLIC "-//W3C//DTD SVG 20010904//EN"
 "http://www.w3.org/TR/2001/REC-SVG-20010904/DTD/svg10.dtd">
<svg version="1.0" xmlns="http://www.w3.org/2000/svg"
 width="512.000000pt" height="512.000000pt" viewBox="0 0 512.000000 512.000000"
 preserveAspectRatio="xMidYMid meet">

<g transform="translate(0.000000,512.000000) scale(0.100000,-0.100000)"
fill="#000000" stroke="none">
<path d="M2492 5109 c-46 -14 -118 -88 -131 -135 -6 -22 -11 -97 -11 -167 0
-94 -3 -128 -12 -131 -7 -1 -69 -17 -138 -33 -274 -67 -490 -191 -700 -402
-205 -206 -336 -450 -401 -746 -20 -92 -22 -140 -29 -590 -7 -446 -9 -499 -29
-587 -67 -305 -200 -538 -442 -773 -135 -132 -164 -188 -164 -320 0 -82 3 -97
33 -157 40 -82 119 -157 200 -190 l57 -23 1800 -3 c1313 -2 1816 0 1860 8 158
30 271 143 304 302 14 66 7 129 -22 208 -17 46 -41 75 -142 177 -221 220 -337
406 -410 658 -49 170 -55 240 -55 650 0 581 -23 720 -159 1000 -161 330 -435
586 -772 724 -95 39 -281 91 -324 91 -22 0 -23 2 -26 148 -4 139 -6 149 -32
194 -49 84 -160 126 -255 97z"/>
<path d="M1780 636 c0 -17 47 -151 67 -191 99 -197 291 -355 508 -417 104 -29
305 -32 405 -4 158 42 320 146 420 269 56 68 131 211 154 295 l15 52 -785 0
c-431 0 -784 -2 -784 -4z"/>
</g>
</svg>
